<svg xmlns="http://www.w3.org/2000/svg" width="1200" height="820" viewBox="0 0 1200 820">

  <defs>
    <linearGradient id="headerGrad" x1="0" y1="0" x2="1" y2="0">
      <stop offset="0" stop-color="#45D1D5" stop-opacity="0.26"/>
      <stop offset="1" stop-color="#45D1D5" stop-opacity="0.08"/>
    </linearGradient>
    <linearGradient id="strokeGrad" x1="0" y1="0" x2="1" y2="1">
      <stop offset="0" stop-color="#45D1D5" stop-opacity="0.55"/>
      <stop offset="0.6" stop-color="#45D1D5" stop-opacity="0.18"/>
      <stop offset="1" stop-color="#45D1D5" stop-opacity="0.35"/>
    </linearGradient>
    <linearGradient id="glowGrad" x1="0" y1="0" x2="1" y2="1">
      <stop offset="0" stop-color="#7EDFE1" stop-opacity="0.65"/>
      <stop offset="1" stop-color="#45D1D5" stop-opacity="0.0"/>
    </linearGradient>
    <filter id="cardShadow" x="-30%" y="-30%" width="160%" height="160%">
      <feDropShadow dx="0" dy="22" stdDeviation="22" flood-color="#0b0f14" flood-opacity="0.20"/>
      <feDropShadow dx="0" dy="6" stdDeviation="10" flood-color="#45D1D5" flood-opacity="0.10"/>
    </filter>
    <filter id="softGlow" x="-40%" y="-40%" width="180%" height="180%">
      <feGaussianBlur stdDeviation="10" result="b"/>
      <feColorMatrix in="b" type="matrix"
        values="1 0 0 0 0
                0 1 0 0 0
                0 0 1 0 0
                0 0 0 0.9 0" />
    </filter>
    <filter id="noise" x="0" y="0" width="100%" height="100%">
      <feTurbulence type="fractalNoise" baseFrequency="0.8" numOctaves="2" stitchTiles="stitch" result="t"/>
      <feColorMatrix type="saturate" values="0" result="g"/>
      <feComponentTransfer>
        <feFuncA type="table" tableValues="0 0.12"/>
      </feComponentTransfer>
    </filter>
    <clipPath id="clipWindow">
      <rect x="56" y="56" width="1088" height="708" rx="26"/>
    </clipPath>
  </defs>

  <!-- window -->
  <rect x="56" y="56" width="1088" height="708" rx="26" fill="#ffffff" stroke="url(#strokeGrad)" stroke-width="1.2" filter="url(#cardShadow)"/>
  <rect x="56" y="56" width="1088" height="116" rx="26" fill="url(#headerGrad)"/>
  <!-- subtle corner glow -->
  <path d="M 56 56 H 470 C 360 160 260 210 56 240 Z" fill="url(#glowGrad)" opacity="0.6"/>
  <!-- mac dots -->
  <circle cx="102" cy="110" r="8" fill="#ff5f57"/><circle cx="128" cy="110" r="8" fill="#ffbd2e"/><circle cx="154" cy="110" r="8" fill="#28c840"/>
  
    <g>
      <circle cx="219.0" cy="103.0" r="23.0" fill="#45D1D5" opacity="0.10"/>
      <rect x="202" y="86" width="34" height="34" rx="17.0" fill="#ffffff" stroke="#e7ecef"/>
      
    <g transform="translate(210,94)" fill="none" stroke="#45D1D5" stroke-width="2" stroke-linecap="round" stroke-linejoin="round" opacity="0.95">
      <circle cx="7.699999999999999" cy="8.36" r="3.52"/>
      <path d="M 1.76 18.04 C 2.6399999999999997 13.64, 12.76 13.64, 13.64 18.04"/>
      <circle cx="15.399999999999999" cy="7.04" r="2.8600000000000003"/>
      <path d="M 11.440000000000001 18.04 C 11.88 14.96, 18.919999999999998 14.96, 19.36 18.04"/>
    </g>
    
    </g>
    
  <text x="246" y="116" font-family="Inter, system-ui" font-size="20" font-weight="800" fill="#0b0f14">AI Employees</text>
  <text x="246" y="145" font-family="Inter, system-ui" font-size="14" font-weight="650" fill="#3a454d">Assign jobs to AI: replies, follow-ups, tagging, scheduling, reporting</text>

  <!-- content -->
  <g clip-path="url(#clipWindow)">
    
    <!-- background shapes -->
    <circle cx="1060" cy="246" r="140" fill="#45D1D5" opacity="0.05"/>
    <circle cx="980" cy="660" r="220" fill="#45D1D5" opacity="0.04"/>
    
    <rect x="92" y="240" width="360" height="508" rx="18" fill="#ffffff" stroke="#e7ecef"/>
    <text x="112" y="270" font-family="Inter, system-ui" font-size="13" font-weight="800" fill="#0b0f14">AI Employees</text>
    
    <g opacity="1.0">
      <rect x="332" y="254" width="96" height="22" rx="11.0" fill="url(#headerGrad)" stroke="#d8e7ea"/>
      <text x="380.0" y="268.96" text-anchor="middle" font-family="Inter, system-ui" font-size="11" font-weight="700" fill="#0b0f14">Auto-assign</text>
    </g>
    
    
        <rect x="108" y="292" width="328" height="90" rx="18" fill="#ffffff" stroke="#edf2f5"/>
        
    <g>
      <circle cx="144" cy="337" r="18" fill="#45D1D5" opacity="0.22"/>
      <circle cx="144" cy="337" r="16" fill="#f6fbfb" stroke="#e7ecef"/>
      <circle cx="144" cy="334" r="5.6" fill="#45D1D5" opacity="0.25"/>
      <path d="M 135.2 344.2 C 139.2 337.8, 148.8 337.8, 152.8 344.2" stroke="#45D1D5" stroke-width="2" fill="none" opacity="0.55" stroke-linecap="round"/>
      <g transform="translate(150.4,321.8)">
        <rect x="0" y="0" width="24" height="16" rx="8" fill="#45D1D5" opacity="0.20" stroke="#45D1D5" stroke-opacity="0.25"/>
        <text x="12.0" y="12" text-anchor="middle" font-family="Inter, system-ui" font-size="10" font-weight="800" fill="#0b0f14">AI</text>
      </g>
    </g>
    
        <text x="176" y="332" font-family="Inter, system-ui" font-size="13" font-weight="850" fill="#0b0f14">Sales Agent</text>
        <text x="176" y="354" font-family="Inter, system-ui" font-size="11.5" font-weight="650" fill="#3a454d">Replies + follow-ups</text>
        <rect x="176" y="362" width="150" height="10" rx="5" fill="#edf2f5"/>
        <rect x="176" y="362" width="80" height="10" rx="5" fill="#45D1D5" opacity="0.25"/>
        

        <rect x="108" y="400" width="328" height="90" rx="18" fill="#ffffff" stroke="#edf2f5"/>
        
    <g>
      <circle cx="144" cy="445" r="18" fill="#45D1D5" opacity="0.22"/>
      <circle cx="144" cy="445" r="16" fill="#f6fbfb" stroke="#e7ecef"/>
      <circle cx="144" cy="442" r="5.6" fill="#45D1D5" opacity="0.25"/>
      <path d="M 135.2 452.2 C 139.2 445.8, 148.8 445.8, 152.8 452.2" stroke="#45D1D5" stroke-width="2" fill="none" opacity="0.55" stroke-linecap="round"/>
      <g transform="translate(150.4,429.8)">
        <rect x="0" y="0" width="24" height="16" rx="8" fill="#45D1D5" opacity="0.20" stroke="#45D1D5" stroke-opacity="0.25"/>
        <text x="12.0" y="12" text-anchor="middle" font-family="Inter, system-ui" font-size="10" font-weight="800" fill="#0b0f14">AI</text>
      </g>
    </g>
    
        <text x="176" y="440" font-family="Inter, system-ui" font-size="13" font-weight="850" fill="#0b0f14">Support Agent</text>
        <text x="176" y="462" font-family="Inter, system-ui" font-size="11.5" font-weight="650" fill="#3a454d">Summaries + next steps</text>
        <rect x="176" y="470" width="150" height="10" rx="5" fill="#edf2f5"/>
        <rect x="176" y="470" width="95" height="10" rx="5" fill="#45D1D5" opacity="0.25"/>
        

        <rect x="108" y="508" width="328" height="90" rx="18" fill="#ffffff" stroke="#edf2f5"/>
        
    <g>
      <circle cx="144" cy="553" r="18" fill="#45D1D5" opacity="0.22"/>
      <circle cx="144" cy="553" r="16" fill="#f6fbfb" stroke="#e7ecef"/>
      <circle cx="144" cy="550" r="5.6" fill="#45D1D5" opacity="0.25"/>
      <path d="M 135.2 560.2 C 139.2 553.8, 148.8 553.8, 152.8 560.2" stroke="#45D1D5" stroke-width="2" fill="none" opacity="0.55" stroke-linecap="round"/>
      <g transform="translate(150.4,537.8)">
        <rect x="0" y="0" width="24" height="16" rx="8" fill="#45D1D5" opacity="0.20" stroke="#45D1D5" stroke-opacity="0.25"/>
        <text x="12.0" y="12" text-anchor="middle" font-family="Inter, system-ui" font-size="10" font-weight="800" fill="#0b0f14">AI</text>
      </g>
    </g>
    
        <text x="176" y="548" font-family="Inter, system-ui" font-size="13" font-weight="850" fill="#0b0f14">Admin Agent</text>
        <text x="176" y="570" font-family="Inter, system-ui" font-size="11.5" font-weight="650" fill="#3a454d">Tags + scheduling</text>
        <rect x="176" y="578" width="150" height="10" rx="5" fill="#edf2f5"/>
        <rect x="176" y="578" width="110" height="10" rx="5" fill="#45D1D5" opacity="0.25"/>
        

        <rect x="108" y="616" width="328" height="90" rx="18" fill="#ffffff" stroke="#edf2f5"/>
        
    <g>
      <circle cx="144" cy="661" r="18" fill="#45D1D5" opacity="0.22"/>
      <circle cx="144" cy="661" r="16" fill="#f6fbfb" stroke="#e7ecef"/>
      <circle cx="144" cy="658" r="5.6" fill="#45D1D5" opacity="0.25"/>
      <path d="M 135.2 668.2 C 139.2 661.8, 148.8 661.8, 152.8 668.2" stroke="#45D1D5" stroke-width="2" fill="none" opacity="0.55" stroke-linecap="round"/>
      <g transform="translate(150.4,645.8)">
        <rect x="0" y="0" width="24" height="16" rx="8" fill="#45D1D5" opacity="0.20" stroke="#45D1D5" stroke-opacity="0.25"/>
        <text x="12.0" y="12" text-anchor="middle" font-family="Inter, system-ui" font-size="10" font-weight="800" fill="#0b0f14">AI</text>
      </g>
    </g>
    
        <text x="176" y="656" font-family="Inter, system-ui" font-size="13" font-weight="850" fill="#0b0f14">Ops Agent</text>
        <text x="176" y="678" font-family="Inter, system-ui" font-size="11.5" font-weight="650" fill="#3a454d">Reporting + tasks</text>
        <rect x="176" y="686" width="150" height="10" rx="5" fill="#edf2f5"/>
        <rect x="176" y="686" width="125" height="10" rx="5" fill="#45D1D5" opacity="0.25"/>
        
    
    <rect x="470" y="240" width="630" height="508" rx="18" fill="#ffffff" stroke="#e7ecef"/>
    <text x="490" y="270" font-family="Inter, system-ui" font-size="13" font-weight="800" fill="#0b0f14">Task Board</text>
    
    <g opacity="1.0">
      <rect x="970" y="256" width="110" height="22" rx="11.0" fill="url(#headerGrad)" stroke="#d8e7ea"/>
      <text x="1025.0" y="270.96" text-anchor="middle" font-family="Inter, system-ui" font-size="11" font-weight="700" fill="#0b0f14">Smart routing</text>
    </g>
    
    
        <rect x="490" y="286" width="190" height="446" rx="16" fill="#fbfdfd" stroke="#edf2f5"/>
        <text x="504" y="312" font-family="Inter, system-ui" font-size="12" font-weight="850" fill="#3a454d">To do</text>
        
        <rect x="696" y="286" width="190" height="446" rx="16" fill="#fbfdfd" stroke="#edf2f5"/>
        <text x="710" y="312" font-family="Inter, system-ui" font-size="12" font-weight="850" fill="#3a454d">In progress</text>
        
        <rect x="902" y="286" width="190" height="446" rx="16" fill="#fbfdfd" stroke="#edf2f5"/>
        <text x="916" y="312" font-family="Inter, system-ui" font-size="12" font-weight="850" fill="#3a454d">Done</text>
        
    <g>
      <rect x="502" y="332" width="180" height="58" rx="16" fill="url(#headerGrad)" stroke="#d8e7ea"/>
      <text x="518" y="356" font-family="Inter, system-ui" font-size="13" font-weight="800" fill="#0b0f14">New lead reply</text>
      <text x="518" y="376" font-family="Inter, system-ui" font-size="11" font-weight="650" fill="#3a454d">WhatsApp • 18s</text>
      <circle cx="664" cy="352" r="6" fill="#45D1D5" opacity="0.45"/>
    </g>
    
    <g>
      <rect x="502" y="400" width="180" height="58" rx="16" fill="#ffffff" stroke="#e7ecef"/>
      <text x="518" y="424" font-family="Inter, system-ui" font-size="13" font-weight="800" fill="#0b0f14">Send quote</text>
      <text x="518" y="444" font-family="Inter, system-ui" font-size="11" font-weight="650" fill="#3a454d">Auto-quote • PDF</text>
      <circle cx="664" cy="420" r="6" fill="#45D1D5" opacity="0.25"/>
    </g>
    
    <g>
      <rect x="502" y="468" width="180" height="58" rx="16" fill="#ffffff" stroke="#e7ecef"/>
      <text x="518" y="492" font-family="Inter, system-ui" font-size="13" font-weight="800" fill="#0b0f14">Tag + assign</text>
      <text x="518" y="512" font-family="Inter, system-ui" font-size="11" font-weight="650" fill="#3a454d">Hot lead</text>
      <circle cx="664" cy="488" r="6" fill="#45D1D5" opacity="0.25"/>
    </g>
    
    <g>
      <rect x="708" y="332" width="180" height="58" rx="16" fill="url(#headerGrad)" stroke="#d8e7ea"/>
      <text x="724" y="356" font-family="Inter, system-ui" font-size="13" font-weight="800" fill="#0b0f14">Follow-up sequence</text>
      <text x="724" y="376" font-family="Inter, system-ui" font-size="11" font-weight="650" fill="#3a454d">Day 2 • running</text>
      <circle cx="870" cy="352" r="6" fill="#45D1D5" opacity="0.45"/>
    </g>
    
    <g>
      <rect x="708" y="400" width="180" height="58" rx="16" fill="#ffffff" stroke="#e7ecef"/>
      <text x="724" y="424" font-family="Inter, system-ui" font-size="13" font-weight="800" fill="#0b0f14">Book appointment</text>
      <text x="724" y="444" font-family="Inter, system-ui" font-size="11" font-weight="650" fill="#3a454d">Calendar • 3pm</text>
      <circle cx="870" cy="420" r="6" fill="#45D1D5" opacity="0.25"/>
    </g>
    
    <g>
      <rect x="708" y="468" width="180" height="58" rx="16" fill="#ffffff" stroke="#e7ecef"/>
      <text x="724" y="492" font-family="Inter, system-ui" font-size="13" font-weight="800" fill="#0b0f14">Create deal</text>
      <text x="724" y="512" font-family="Inter, system-ui" font-size="11" font-weight="650" fill="#3a454d">CRM pipeline</text>
      <circle cx="870" cy="488" r="6" fill="#45D1D5" opacity="0.25"/>
    </g>
    
    <g>
      <rect x="914" y="332" width="180" height="58" rx="16" fill="url(#headerGrad)" stroke="#d8e7ea"/>
      <text x="930" y="356" font-family="Inter, system-ui" font-size="13" font-weight="800" fill="#0b0f14">Lead qualified</text>
      <text x="930" y="376" font-family="Inter, system-ui" font-size="11" font-weight="650" fill="#3a454d">Score 87/100</text>
      <circle cx="1076" cy="352" r="6" fill="#45D1D5" opacity="0.45"/>
    </g>
    
    <g>
      <rect x="914" y="400" width="180" height="58" rx="16" fill="#ffffff" stroke="#e7ecef"/>
      <text x="930" y="424" font-family="Inter, system-ui" font-size="13" font-weight="800" fill="#0b0f14">Deposit received</text>
      <text x="930" y="444" font-family="Inter, system-ui" font-size="11" font-weight="650" fill="#3a454d">Paid • R1,500</text>
      <circle cx="1076" cy="420" r="6" fill="#45D1D5" opacity="0.25"/>
    </g>
    
    <g>
      <rect x="914" y="468" width="180" height="58" rx="16" fill="#ffffff" stroke="#e7ecef"/>
      <text x="930" y="492" font-family="Inter, system-ui" font-size="13" font-weight="800" fill="#0b0f14">Won deal</text>
      <text x="930" y="512" font-family="Inter, system-ui" font-size="11" font-weight="650" fill="#3a454d">Closed • today</text>
      <circle cx="1076" cy="488" r="6" fill="#45D1D5" opacity="0.25"/>
    </g>
    
    <path d="M 680 374 C 702 374, 674 374, 696 374" stroke="#45D1D5" stroke-opacity="0.35" stroke-width="3" fill="none" stroke-linecap="round"/>
    <path d="M 886 374 C 908 374, 880 374, 902 374" stroke="#45D1D5" stroke-opacity="0.35" stroke-width="3" fill="none" stroke-linecap="round"/>
    
    
    <!-- noise overlay -->
    <rect x="56" y="56" width="1088" height="708" rx="26" fill="#ffffff" filter="url(#noise)" opacity="0.15"/>
  </g>

  <!-- outer glow stroke -->
  <rect x="56" y="56" width="1088" height="708" rx="26" fill="none" stroke="#45D1D5" stroke-opacity="0.18"/>
</svg>