<svg xmlns="http://www.w3.org/2000/svg" width="1200" height="820" viewBox="0 0 1200 820">

  <defs>
    <linearGradient id="headerGrad" x1="0" y1="0" x2="1" y2="0">
      <stop offset="0" stop-color="#45D1D5" stop-opacity="0.26"/>
      <stop offset="1" stop-color="#45D1D5" stop-opacity="0.08"/>
    </linearGradient>
    <linearGradient id="strokeGrad" x1="0" y1="0" x2="1" y2="1">
      <stop offset="0" stop-color="#45D1D5" stop-opacity="0.55"/>
      <stop offset="0.6" stop-color="#45D1D5" stop-opacity="0.18"/>
      <stop offset="1" stop-color="#45D1D5" stop-opacity="0.35"/>
    </linearGradient>
    <linearGradient id="glowGrad" x1="0" y1="0" x2="1" y2="1">
      <stop offset="0" stop-color="#7EDFE1" stop-opacity="0.65"/>
      <stop offset="1" stop-color="#45D1D5" stop-opacity="0.0"/>
    </linearGradient>
    <filter id="cardShadow" x="-30%" y="-30%" width="160%" height="160%">
      <feDropShadow dx="0" dy="22" stdDeviation="22" flood-color="#0b0f14" flood-opacity="0.20"/>
      <feDropShadow dx="0" dy="6" stdDeviation="10" flood-color="#45D1D5" flood-opacity="0.10"/>
    </filter>
    <filter id="softGlow" x="-40%" y="-40%" width="180%" height="180%">
      <feGaussianBlur stdDeviation="10" result="b"/>
      <feColorMatrix in="b" type="matrix"
        values="1 0 0 0 0
                0 1 0 0 0
                0 0 1 0 0
                0 0 0 0.9 0" />
    </filter>
    <filter id="noise" x="0" y="0" width="100%" height="100%">
      <feTurbulence type="fractalNoise" baseFrequency="0.8" numOctaves="2" stitchTiles="stitch" result="t"/>
      <feColorMatrix type="saturate" values="0" result="g"/>
      <feComponentTransfer>
        <feFuncA type="table" tableValues="0 0.12"/>
      </feComponentTransfer>
    </filter>
    <clipPath id="clipWindow">
      <rect x="56" y="56" width="1088" height="708" rx="26"/>
    </clipPath>
  </defs>

  <!-- window -->
  <rect x="56" y="56" width="1088" height="708" rx="26" fill="#ffffff" stroke="url(#strokeGrad)" stroke-width="1.2" filter="url(#cardShadow)"/>
  <rect x="56" y="56" width="1088" height="116" rx="26" fill="url(#headerGrad)"/>
  <!-- subtle corner glow -->
  <path d="M 56 56 H 470 C 360 160 260 210 56 240 Z" fill="url(#glowGrad)" opacity="0.6"/>
  <!-- mac dots -->
  <circle cx="102" cy="110" r="8" fill="#ff5f57"/><circle cx="128" cy="110" r="8" fill="#ffbd2e"/><circle cx="154" cy="110" r="8" fill="#28c840"/>
  
    <g>
      <circle cx="219.0" cy="103.0" r="23.0" fill="#45D1D5" opacity="0.10"/>
      <rect x="202" y="86" width="34" height="34" rx="17.0" fill="#ffffff" stroke="#e7ecef"/>
      
    <g transform="translate(210,94)" fill="none" stroke="#45D1D5" stroke-width="2" stroke-linecap="round" stroke-linejoin="round" opacity="0.95">
      <path d="M 12.32 1.3199999999999998 L 4.84 12.32 H 11.0 L 9.68 20.68 L 17.16 9.24 H 11.0 Z"/>
    </g>
    
    </g>
    
  <text x="246" y="116" font-family="Inter, system-ui" font-size="20" font-weight="800" fill="#0b0f14">Lead Capture → WhatsApp</text>
  <text x="246" y="145" font-family="Inter, system-ui" font-size="14" font-weight="650" fill="#3a454d">Turn forms, ads, and messages into deals automatically</text>

  <!-- content -->
  <g clip-path="url(#clipWindow)">
    
    <circle cx="240" cy="650" r="260" fill="#45D1D5" opacity="0.03"/>
    <circle cx="950" cy="250" r="220" fill="#45D1D5" opacity="0.04"/>
    
    <rect x="92" y="240" width="1008" height="508" rx="18" fill="#ffffff" stroke="#e7ecef"/>
    <text x="112" y="270" font-family="Inter, system-ui" font-size="13" font-weight="800" fill="#0b0f14">Capture → Reply → Deal</text>
    
    <g opacity="1.0">
      <rect x="946" y="256" width="134" height="22" rx="11.0" fill="url(#headerGrad)" stroke="#d8e7ea"/>
      <text x="1013.0" y="270.96" text-anchor="middle" font-family="Inter, system-ui" font-size="11" font-weight="700" fill="#0b0f14">No manual admin</text>
    </g>
    
    
    <rect x="132" y="320" width="260" height="154" rx="18" fill="#fbfdfd" stroke="#edf2f5"/>
    
    <g transform="translate(150,338)" fill="none" stroke="#45D1D5" stroke-width="2" stroke-linecap="round" stroke-linejoin="round">
      <rect x="5.3999999999999995" y="3.5999999999999996" width="19.2" height="22.8" rx="3.5999999999999996"/>
      <path d="M 9.0 9.0 H 21.0"/>
      <path d="M 9.0 13.8 H 19.2"/>
      <path d="M 9.0 18.6 H 17.4"/>
    </g>
    
    <text x="194" y="362" font-family="Inter, system-ui" font-size="13" font-weight="900" fill="#0b0f14">Website form</text>
    <text x="194" y="384" font-family="Inter, system-ui" font-size="11.5" font-weight="650" fill="#3a454d">Instant lead created</text>
    
    <g opacity="1.0">
      <rect x="150" y="414" width="110" height="22" rx="11.0" fill="#ffffff" stroke="#e7ecef"/>
      <text x="205.0" y="428.96" text-anchor="middle" font-family="Inter, system-ui" font-size="11" font-weight="700" fill="#0b0f14">Name + phone</text>
    </g>
    
    
    <g opacity="1.0">
      <rect x="266" y="414" width="104" height="22" rx="11.0" fill="#ffffff" stroke="#e7ecef"/>
      <text x="318.0" y="428.96" text-anchor="middle" font-family="Inter, system-ui" font-size="11" font-weight="700" fill="#0b0f14">Intent</text>
    </g>
    
    
    <g opacity="1.0">
      <rect x="150" y="442" width="180" height="22" rx="11.0" fill="url(#headerGrad)" stroke="#d8e7ea"/>
      <text x="240.0" y="456.96" text-anchor="middle" font-family="Inter, system-ui" font-size="11" font-weight="700" fill="#0b0f14">Auto-tag: Hot</text>
    </g>
    
    
    <rect x="132" y="506" width="260" height="154" rx="18" fill="#fbfdfd" stroke="#edf2f5"/>
    
    <g transform="translate(150,524)" fill="none" stroke="#45D1D5" stroke-width="2" stroke-linecap="round" stroke-linejoin="round">
      <path d="M 6.6 16.200000000000003 L 19.2 10.799999999999999 V 21.0 L 6.6 16.200000000000003 Z"/>
      <path d="M 19.2 10.799999999999999 L 24.599999999999998 8.4 V 23.400000000000002 L 19.2 21.0"/>
      <path d="M 8.4 18.0 L 10.200000000000001 25.2"/>
      <path d="M 25.8 13.2 C 28.2 15.0, 28.2 16.8, 25.8 18.6"/>
    </g>
    
    <text x="194" y="548" font-family="Inter, system-ui" font-size="13" font-weight="900" fill="#0b0f14">Ads / Social</text>
    <text x="194" y="570" font-family="Inter, system-ui" font-size="11.5" font-weight="650" fill="#3a454d">Track source + ROI</text>
    
    <g opacity="1.0">
      <rect x="150" y="600" width="140" height="22" rx="11.0" fill="#ffffff" stroke="#e7ecef"/>
      <text x="220.0" y="614.96" text-anchor="middle" font-family="Inter, system-ui" font-size="11" font-weight="700" fill="#0b0f14">Campaign: FB</text>
    </g>
    
    
    <g opacity="1.0">
      <rect x="294" y="600" width="76" height="22" rx="11.0" fill="#ffffff" stroke="#e7ecef"/>
      <text x="332.0" y="614.96" text-anchor="middle" font-family="Inter, system-ui" font-size="11" font-weight="700" fill="#0b0f14">UTM</text>
    </g>
    
    
    <g opacity="1.0">
      <rect x="150" y="628" width="210" height="22" rx="11.0" fill="url(#headerGrad)" stroke="#d8e7ea"/>
      <text x="255.0" y="642.96" text-anchor="middle" font-family="Inter, system-ui" font-size="11" font-weight="700" fill="#0b0f14">Auto-assign: Sales AI</text>
    </g>
    
    
    <rect x="472" y="416" width="240" height="210" rx="24" fill="url(#headerGrad)" stroke="#d8e7ea"/>
    
    <g transform="translate(570,446)" fill="none" stroke="#45D1D5" stroke-width="2.2" stroke-linecap="round" stroke-linejoin="round">
      <path d="M 23.0 4.6000000000000005 C 12.88 4.6000000000000005, 4.6000000000000005 12.88, 4.6000000000000005 23.0 
               C 4.6000000000000005 33.12, 12.88 41.4, 23.0 41.4
               C 26.68 41.4, 30.360000000000003 40.48, 33.12 39.56
               L 40.48 42.32 L 38.64 34.96
               C 40.48 32.199999999999996, 41.4 27.599999999999998, 41.4 23.0
               C 41.4 12.88, 33.12 4.6000000000000005, 23.0 4.6000000000000005 Z"/>
      <path d="M 17.48 16.56 C 20.24 23.92, 23.92 27.599999999999998, 30.360000000000003 30.360000000000003"/>
      <path d="M 20.24 20.24 L 16.56 23.92"/>
      <path d="M 26.68 28.52 L 30.360000000000003 30.360000000000003"/>
    </g>
    
    <text x="592" y="520" text-anchor="middle" font-family="Inter, system-ui" font-size="13.5" font-weight="900" fill="#0b0f14">WhatsApp reply</text>
    <text x="592" y="542" text-anchor="middle" font-family="Inter, system-ui" font-size="11.5" font-weight="650" fill="#3a454d">AI answers in seconds</text>
    <rect x="496" y="562" width="192" height="44" rx="16" fill="#ffffff" stroke="#e7ecef"/>
    <rect x="512" y="576" width="150" height="10" rx="5" fill="#edf2f5"/>
    <rect x="512" y="592" width="110" height="10" rx="5" fill="#edf2f5"/>
    
    <rect x="792" y="358" width="280" height="326" rx="20" fill="#fbfdfd" stroke="#edf2f5"/>
    
    <g transform="translate(812,378)" fill="none" stroke="#45D1D5" stroke-width="2" stroke-linecap="round" stroke-linejoin="round" opacity="0.95">
      <path d="M 14.560000000000002 1.56 L 5.72 14.560000000000002 H 13.0 L 11.44 24.439999999999998 L 20.28 10.92 H 13.0 Z"/>
    </g>
    
    <text x="848" y="400" font-family="Inter, system-ui" font-size="13.5" font-weight="900" fill="#0b0f14">Deal created</text>
    <text x="848" y="422" font-family="Inter, system-ui" font-size="11.5" font-weight="650" fill="#3a454d">Pipeline updated automatically</text>
    <rect x="812" y="446" width="240" height="64" rx="18" fill="#ffffff" stroke="#e7ecef"/>
    <text x="832" y="476" font-family="Inter, system-ui" font-size="12.5" font-weight="850" fill="#0b0f14">Lead score</text>
    <text x="832" y="498" font-family="Inter, system-ui" font-size="18" font-weight="950" fill="#0b0f14">87</text>
    <rect x="912" y="476" width="120" height="10" rx="5" fill="#edf2f5"/>
    <rect x="912" y="476" width="90" height="10" rx="5" fill="#45D1D5" opacity="0.30"/>
    
    <g opacity="1.0">
      <rect x="812" y="526" width="108" height="22" rx="11.0" fill="url(#headerGrad)" stroke="#d8e7ea"/>
      <text x="866.0" y="540.96" text-anchor="middle" font-family="Inter, system-ui" font-size="11" font-weight="700" fill="#0b0f14">Quote sent</text>
    </g>
    
    
    <g opacity="1.0">
      <rect x="928" y="526" width="124" height="22" rx="11.0" fill="#ffffff" stroke="#e7ecef"/>
      <text x="990.0" y="540.96" text-anchor="middle" font-family="Inter, system-ui" font-size="11" font-weight="700" fill="#0b0f14">Booked 3pm</text>
    </g>
    
    <rect x="812" y="564" width="240" height="92" rx="18" fill="#ffffff" stroke="#e7ecef"/>
    <text x="832" y="594" font-family="Inter, system-ui" font-size="12" font-weight="850" fill="#3a454d">Notes</text>
    <rect x="832" y="606" width="180" height="10" rx="5" fill="#edf2f5"/>
    <rect x="832" y="624" width="200" height="10" rx="5" fill="#edf2f5"/>
    
    <path d="M 392 398 C 432.0 398, 432.0 486, 472 486" stroke="#45D1D5" stroke-width="4" stroke-opacity="0.35" fill="none" stroke-linecap="round"/>
    <path d="M 472 486 l -12 -7 l 4 7 l -4 7 Z" fill="#45D1D5" opacity="0.35"/>
    
    <path d="M 392 584 C 432.0 584, 432.0 556, 472 556" stroke="#45D1D5" stroke-width="4" stroke-opacity="0.35" fill="none" stroke-linecap="round"/>
    <path d="M 472 556 l -12 -7 l 4 7 l -4 7 Z" fill="#45D1D5" opacity="0.35"/>
    
    <path d="M 712 526 C 752.0 526, 752.0 508, 792 508" stroke="#45D1D5" stroke-width="4" stroke-opacity="0.35" fill="none" stroke-linecap="round"/>
    <path d="M 792 508 l -12 -7 l 4 7 l -4 7 Z" fill="#45D1D5" opacity="0.35"/>
    
    
    <!-- noise overlay -->
    <rect x="56" y="56" width="1088" height="708" rx="26" fill="#ffffff" filter="url(#noise)" opacity="0.15"/>
  </g>

  <!-- outer glow stroke -->
  <rect x="56" y="56" width="1088" height="708" rx="26" fill="none" stroke="#45D1D5" stroke-opacity="0.18"/>
</svg>