<svg xmlns="http://www.w3.org/2000/svg" width="1100" height="760" viewBox="0 0 1100 760">
  <defs>
    <linearGradient id="bg" x1="0" y1="0" x2="1" y2="1">
      <stop offset="0" stop-color="#ffffff"/>
      <stop offset="1" stop-color="#f6fbfb"/>
    </linearGradient>
    <linearGradient id="a" x1="0" y1="0" x2="1" y2="0">
      <stop offset="0" stop-color="#45D1D5" stop-opacity="0.25"/>
      <stop offset="1" stop-color="#45D1D5" stop-opacity="0.05"/>
    </linearGradient>
    <filter id="shadow" x="-20%" y="-20%" width="140%" height="140%">
      <feDropShadow dx="0" dy="16" stdDeviation="18" flood-color="#0b0f14" flood-opacity="0.10"/>
    </filter>
  </defs>

  <rect x="0" y="0" width="1100" height="760" rx="28" fill="url(#bg)"/>
  <rect x="54" y="54" width="992" height="652" rx="24" fill="#ffffff" stroke="#e7ecef" filter="url(#shadow)"/>
  <rect x="54" y="54" width="992" height="92" rx="24" fill="url(#a)" stroke="#e7ecef"/>
  <circle cx="98" cy="100" r="8" fill="#ff5f57"/>
  <circle cx="124" cy="100" r="8" fill="#ffbd2e"/>
  <circle cx="150" cy="100" r="8" fill="#28c840"/>

  <text x="210" y="109" font-family="Inter, system-ui, -apple-system, Segoe UI, Roboto, Arial" font-size="18" font-weight="700" fill="#0b0f14">Lead Capture → Instant WhatsApp Reply</text>

  <rect x="96" y="190" width="290" height="52" rx="14" fill="#ffffff" stroke="#e7ecef"/>
  <rect x="96" y="262" width="290" height="52" rx="14" fill="#ffffff" stroke="#e7ecef"/>
  <rect x="96" y="334" width="290" height="52" rx="14" fill="#ffffff" stroke="#e7ecef"/>
  <rect x="96" y="406" width="290" height="52" rx="14" fill="#ffffff" stroke="#e7ecef"/>

  <rect x="428" y="190" width="570" height="268" rx="18" fill="#ffffff" stroke="#e7ecef"/>
  <rect x="452" y="214" width="250" height="18" rx="9" fill="#edf2f5"/>
  <rect x="452" y="246" width="320" height="18" rx="9" fill="#edf2f5"/>
  <rect x="452" y="278" width="420" height="18" rx="9" fill="#edf2f5"/>

  <rect x="452" y="336" width="236" height="86" rx="16" fill="url(#a)" stroke="#d8e7ea"/>
  <rect x="706" y="336" width="270" height="86" rx="16" fill="#ffffff" stroke="#e7ecef"/>
  <rect x="730" y="364" width="180" height="14" rx="7" fill="#edf2f5"/>
  <rect x="730" y="392" width="140" height="14" rx="7" fill="#edf2f5"/>

  <rect x="428" y="494" width="570" height="170" rx="18" fill="#ffffff" stroke="#e7ecef"/>
  <rect x="452" y="520" width="370" height="18" rx="9" fill="#edf2f5"/>
  <rect x="452" y="552" width="470" height="18" rx="9" fill="#edf2f5"/>
  <rect x="452" y="584" width="410" height="18" rx="9" fill="#edf2f5"/>
  <rect x="452" y="616" width="300" height="18" rx="9" fill="#edf2f5"/>

  <rect x="0" y="0" width="1100" height="760" rx="28" fill="none" stroke="#45D1D5" stroke-opacity="0.28"/>
</svg>