<svg xmlns="http://www.w3.org/2000/svg" width="1200" height="820" viewBox="0 0 1200 820">
  <defs>
    <linearGradient id="headerGrad" x1="0" y1="0" x2="1" y2="0">
      <stop offset="0" stop-color="#45D1D5" stop-opacity="0.26"/>
      <stop offset="1" stop-color="#45D1D5" stop-opacity="0.08"/>
    </linearGradient>
    <linearGradient id="strokeGrad" x1="0" y1="0" x2="1" y2="1">
      <stop offset="0" stop-color="#45D1D5" stop-opacity="0.55"/>
      <stop offset="0.6" stop-color="#45D1D5" stop-opacity="0.18"/>
      <stop offset="1" stop-color="#45D1D5" stop-opacity="0.35"/>
    </linearGradient>
    <linearGradient id="glowGrad" x1="0" y1="0" x2="1" y2="1">
      <stop offset="0" stop-color="#7EDFE1" stop-opacity="0.65"/>
      <stop offset="1" stop-color="#45D1D5" stop-opacity="0.0"/>
    </linearGradient>
    <filter id="cardShadow" x="-30%" y="-30%" width="160%" height="160%">
      <feDropShadow dx="0" dy="22" stdDeviation="22" flood-color="#0b0f14" flood-opacity="0.20"/>
      <feDropShadow dx="0" dy="6" stdDeviation="10" flood-color="#45D1D5" flood-opacity="0.10"/>
    </filter>
    <clipPath id="clipWindow">
      <rect x="56" y="56" width="1088" height="708" rx="26"/>
    </clipPath>
  </defs>

  <!-- window -->
  <rect x="56" y="56" width="1088" height="708" rx="26" fill="#ffffff" stroke="url(#strokeGrad)" stroke-width="1.2" filter="url(#cardShadow)"/>
  <rect x="56" y="56" width="1088" height="116" rx="26" fill="url(#headerGrad)"/>
  <!-- subtle corner glow -->
  <path d="M 56 56 H 470 C 360 160 260 210 56 240 Z" fill="url(#glowGrad)" opacity="0.6"/>
  <!-- mac dots -->
  <circle cx="102" cy="110" r="8" fill="#ff5f57"/><circle cx="128" cy="110" r="8" fill="#ffbd2e"/><circle cx="154" cy="110" r="8" fill="#28c840"/>

  <!-- header icon -->
  <g>
    <circle cx="219" cy="103" r="23" fill="#45D1D5" opacity="0.10"/>
    <rect x="202" y="86" width="34" height="34" rx="17" fill="#ffffff" stroke="#e7ecef"/>
    <g transform="translate(210,94)" fill="none" stroke="#45D1D5" stroke-width="2" stroke-linecap="round" stroke-linejoin="round" opacity="0.95">
      <path d="M3 4 H21 L14 12 V19 L10 17 V12 Z"/>
    </g>
  </g>

  <text x="246" y="116" font-family="Inter, system-ui" font-size="20" font-weight="800" fill="#0b0f14">Pipeline, Tasks &amp; SLAs</text>
  <text x="246" y="145" font-family="Inter, system-ui" font-size="14" font-weight="650" fill="#3a454d">Move deals faster — with auto-tasks and SLA enforcement</text>

  <!-- content -->
  <g clip-path="url(#clipWindow)">
    <circle cx="210" cy="670" r="220" fill="#45D1D5" opacity="0.03"/>
    <circle cx="1000" cy="260" r="180" fill="#45D1D5" opacity="0.04"/>
    
  <rect x="92" y="240" width="360" height="508" rx="18" fill="#ffffff" stroke="#e7ecef"/>
  <text x="112" y="270" font-family="Inter, system-ui" font-size="13" font-weight="800" fill="#0b0f14">Pipeline</text>
  <g opacity="1.0">
    <rect x="336" y="254" width="96" height="22" rx="11" fill="url(#headerGrad)" stroke="#d8e7ea"/>
    <text x="384" y="269" text-anchor="middle" font-family="Inter, system-ui" font-size="11" font-weight="700" fill="#0b0f14">This week</text>
  </g>

  <!-- mini funnel bars -->
  <rect x="112" y="294" width="320" height="86" rx="18" fill="#fbfdfd" stroke="#edf2f5"/>
  <text x="130" y="324" font-family="Inter, system-ui" font-size="12" font-weight="850" fill="#3a454d">Stage velocity</text>
  <rect x="130" y="340" width="260" height="10" rx="5" fill="#edf2f5"/>
  <rect x="130" y="340" width="190" height="10" rx="5" fill="url(#headerGrad)" stroke="#d8e7ea"/>
  <rect x="130" y="356" width="220" height="10" rx="5" fill="#edf2f5"/>
  <rect x="130" y="356" width="150" height="10" rx="5" fill="url(#headerGrad)" stroke="#d8e7ea"/>

  <!-- stages list -->
  <text x="112" y="410" font-family="Inter, system-ui" font-size="12.5" font-weight="900" fill="#0b0f14">Stages</text>

  <g>
    <rect x="112" y="424" width="320" height="52" rx="16" fill="url(#headerGrad)" stroke="#d8e7ea"/>
    <circle cx="140" cy="450" r="10" fill="#45D1D5" opacity="0.45"/>
    <text x="160" y="455" font-family="Inter, system-ui" font-size="12.5" font-weight="900" fill="#0b0f14">New</text>
    <rect x="360" y="438" width="56" height="22" rx="11" fill="#ffffff" stroke="#e7ecef"/>
    <text x="388" y="453" text-anchor="middle" font-family="Inter, system-ui" font-size="11" font-weight="800" fill="#0b0f14">42</text>
  </g>

  <g>
    <rect x="112" y="484" width="320" height="52" rx="16" fill="#ffffff" stroke="#edf2f5"/>
    <circle cx="140" cy="510" r="10" fill="#45D1D5" opacity="0.20"/>
    <text x="160" y="515" font-family="Inter, system-ui" font-size="12.5" font-weight="900" fill="#0b0f14">Qualified</text>
    <rect x="360" y="498" width="56" height="22" rx="11" fill="url(#headerGrad)" stroke="#d8e7ea"/>
    <text x="388" y="513" text-anchor="middle" font-family="Inter, system-ui" font-size="11" font-weight="800" fill="#0b0f14">18</text>
  </g>

  <g>
    <rect x="112" y="544" width="320" height="52" rx="16" fill="#ffffff" stroke="#edf2f5"/>
    <circle cx="140" cy="570" r="10" fill="#45D1D5" opacity="0.20"/>
    <text x="160" y="575" font-family="Inter, system-ui" font-size="12.5" font-weight="900" fill="#0b0f14">Proposal</text>
    <rect x="360" y="558" width="56" height="22" rx="11" fill="#ffffff" stroke="#e7ecef"/>
    <text x="388" y="573" text-anchor="middle" font-family="Inter, system-ui" font-size="11" font-weight="800" fill="#0b0f14">9</text>
  </g>

  <g>
    <rect x="112" y="604" width="320" height="52" rx="16" fill="#ffffff" stroke="#edf2f5"/>
    <circle cx="140" cy="630" r="10" fill="#45D1D5" opacity="0.20"/>
    <text x="160" y="635" font-family="Inter, system-ui" font-size="12.5" font-weight="900" fill="#0b0f14">Negotiation</text>
    <rect x="360" y="618" width="56" height="22" rx="11" fill="#ffffff" stroke="#e7ecef"/>
    <text x="388" y="633" text-anchor="middle" font-family="Inter, system-ui" font-size="11" font-weight="800" fill="#0b0f14">4</text>
  </g>

  <g>
    <rect x="112" y="664" width="320" height="52" rx="16" fill="#fbfdfd" stroke="#edf2f5"/>
    <circle cx="140" cy="690" r="10" fill="#45D1D5" opacity="0.35"/>
    <text x="160" y="695" font-family="Inter, system-ui" font-size="12.5" font-weight="900" fill="#0b0f14">Won</text>
    <rect x="360" y="678" width="56" height="22" rx="11" fill="url(#headerGrad)" stroke="#d8e7ea"/>
    <text x="388" y="693" text-anchor="middle" font-family="Inter, system-ui" font-size="11" font-weight="800" fill="#0b0f14">6</text>
  </g>

  <!-- tasks card -->
  <rect x="470" y="240" width="410" height="508" rx="18" fill="#ffffff" stroke="#e7ecef"/>
  <text x="490" y="270" font-family="Inter, system-ui" font-size="13" font-weight="800" fill="#0b0f14">Tasks</text>
  <g opacity="1.0">
    <rect x="798" y="256" width="62" height="22" rx="11" fill="url(#headerGrad)" stroke="#d8e7ea"/>
    <text x="829" y="271" text-anchor="middle" font-family="Inter, system-ui" font-size="11" font-weight="700" fill="#0b0f14">Today</text>
  </g>

  <!-- task rows -->
  <rect x="490" y="294" width="370" height="74" rx="18" fill="#fbfdfd" stroke="#edf2f5"/>
  <circle cx="518" cy="332" r="10" fill="#ffffff" stroke="#e7ecef"/>
  <text x="540" y="328" font-family="Inter, system-ui" font-size="12.5" font-weight="900" fill="#0b0f14">Call lead: SolarCo</text>
  <text x="540" y="348" font-family="Inter, system-ui" font-size="11" font-weight="650" fill="#3a454d">Follow up • Proposal stage</text>
  <rect x="760" y="312" width="84" height="22" rx="11" fill="url(#headerGrad)" stroke="#d8e7ea"/>
  <text x="802" y="327" text-anchor="middle" font-family="Inter, system-ui" font-size="11" font-weight="800" fill="#0b0f14">10:30</text>

  <rect x="490" y="378" width="370" height="74" rx="18" fill="#ffffff" stroke="#edf2f5"/>
  <circle cx="518" cy="416" r="10" fill="#45D1D5" opacity="0.18" stroke="#d8e7ea"/>
  <path d="M 513 416 l 3 3 l 7 -8" stroke="#45D1D5" stroke-width="2" fill="none" stroke-linecap="round" stroke-linejoin="round" opacity="0.9"/>
  <text x="540" y="412" font-family="Inter, system-ui" font-size="12.5" font-weight="900" fill="#0b0f14">Send quote</text>
  <text x="540" y="432" font-family="Inter, system-ui" font-size="11" font-weight="650" fill="#3a454d">AI drafted • Ready to review</text>
  <rect x="760" y="396" width="84" height="22" rx="11" fill="#ffffff" stroke="#e7ecef"/>
  <text x="802" y="411" text-anchor="middle" font-family="Inter, system-ui" font-size="11" font-weight="800" fill="#0b0f14">Done</text>

  <rect x="490" y="462" width="370" height="74" rx="18" fill="url(#headerGrad)" stroke="#d8e7ea"/>
  <circle cx="518" cy="500" r="10" fill="#ffffff" stroke="#e7ecef"/>
  <text x="540" y="496" font-family="Inter, system-ui" font-size="12.5" font-weight="900" fill="#0b0f14">Book meeting</text>
  <text x="540" y="516" font-family="Inter, system-ui" font-size="11" font-weight="650" fill="#3a454d">2 slots suggested • Auto reminders</text>
  <rect x="760" y="480" width="84" height="22" rx="11" fill="#ffffff" stroke="#e7ecef"/>
  <text x="802" y="495" text-anchor="middle" font-family="Inter, system-ui" font-size="11" font-weight="800" fill="#0b0f14">14:00</text>

  <rect x="490" y="546" width="370" height="74" rx="18" fill="#ffffff" stroke="#edf2f5"/>
  <circle cx="518" cy="584" r="10" fill="#ffffff" stroke="#e7ecef"/>
  <text x="540" y="580" font-family="Inter, system-ui" font-size="12.5" font-weight="900" fill="#0b0f14">Update pipeline notes</text>
  <text x="540" y="600" font-family="Inter, system-ui" font-size="11" font-weight="650" fill="#3a454d">AI summary added • 1-click save</text>
  <rect x="760" y="564" width="84" height="22" rx="11" fill="#ffffff" stroke="#e7ecef"/>
  <text x="802" y="579" text-anchor="middle" font-family="Inter, system-ui" font-size="11" font-weight="800" fill="#0b0f14">Anytime</text>

  <rect x="490" y="692" width="370" height="54" rx="18" fill="#fbfdfd" stroke="#edf2f5"/>
  <text x="514" y="726" font-family="Inter, system-ui" font-size="12" font-weight="850" fill="#3a454d">Auto-prioritized by SLA risk</text>
  <rect x="740" y="708" width="110" height="22" rx="11" fill="url(#headerGrad)" stroke="#d8e7ea"/>
  <text x="795" y="724" text-anchor="middle" font-family="Inter, system-ui" font-size="11" font-weight="900" fill="#0b0f14">Create task</text>

  <!-- sla card -->
  <rect x="900" y="240" width="200" height="508" rx="18" fill="#ffffff" stroke="#e7ecef"/>
  <text x="920" y="270" font-family="Inter, system-ui" font-size="13" font-weight="800" fill="#0b0f14">SLAs</text>

  <rect x="920" y="292" width="160" height="84" rx="18" fill="#fbfdfd" stroke="#edf2f5"/>
  <text x="936" y="322" font-family="Inter, system-ui" font-size="12" font-weight="850" fill="#3a454d">First reply</text>
  <text x="936" y="346" font-family="Inter, system-ui" font-size="16" font-weight="900" fill="#0b0f14">1m 12s</text>
  <rect x="1004" y="312" width="68" height="22" rx="11" fill="url(#headerGrad)" stroke="#d8e7ea"/>
  <text x="1038" y="327" text-anchor="middle" font-family="Inter, system-ui" font-size="11" font-weight="800" fill="#0b0f14">On track</text>

  <rect x="920" y="386" width="160" height="84" rx="18" fill="url(#headerGrad)" stroke="#d8e7ea"/>
  <text x="936" y="416" font-family="Inter, system-ui" font-size="12" font-weight="850" fill="#0b0f14">Quote sent</text>
  <text x="936" y="440" font-family="Inter, system-ui" font-size="16" font-weight="900" fill="#0b0f14">12m</text>
  <rect x="1008" y="406" width="64" height="22" rx="11" fill="#ffffff" stroke="#e7ecef"/>
  <text x="1040" y="421" text-anchor="middle" font-family="Inter, system-ui" font-size="11" font-weight="800" fill="#0b0f14">At risk</text>

  <rect x="920" y="480" width="160" height="252" rx="18" fill="#fbfdfd" stroke="#edf2f5"/>
  <text x="936" y="510" font-family="Inter, system-ui" font-size="12" font-weight="850" fill="#3a454d">Escalations</text>

  <rect x="936" y="524" width="132" height="58" rx="16" fill="#ffffff" stroke="#e7ecef"/>
  <circle cx="954" cy="552" r="8" fill="#ffbd2e" opacity="0.95"/>
  <text x="970" y="548" font-family="Inter, system-ui" font-size="11.5" font-weight="900" fill="#0b0f14">2 leads</text>
  <text x="970" y="566" font-family="Inter, system-ui" font-size="10.5" font-weight="650" fill="#3a454d">Need follow-up</text>

  <rect x="936" y="590" width="132" height="58" rx="16" fill="url(#headerGrad)" stroke="#d8e7ea"/>
  <circle cx="954" cy="618" r="8" fill="#45D1D5" opacity="0.55"/>
  <text x="970" y="614" font-family="Inter, system-ui" font-size="11.5" font-weight="900" fill="#0b0f14">Auto-reminders</text>
  <text x="970" y="632" font-family="Inter, system-ui" font-size="10.5" font-weight="650" fill="#3a454d">Sent instantly</text>

  <rect x="936" y="656" width="132" height="58" rx="16" fill="#ffffff" stroke="#e7ecef"/>
  <circle cx="954" cy="684" r="8" fill="#28c840" opacity="0.85"/>
  <text x="970" y="680" font-family="Inter, system-ui" font-size="11.5" font-weight="900" fill="#0b0f14">SLA met</text>
  <text x="970" y="698" font-family="Inter, system-ui" font-size="10.5" font-weight="650" fill="#3a454d">Today: 94%</text>

  </g>
</svg>
