<svg xmlns="http://www.w3.org/2000/svg" width="1200" height="820" viewBox="0 0 1200 820">

  <defs>
    <linearGradient id="headerGrad" x1="0" y1="0" x2="1" y2="0">
      <stop offset="0" stop-color="#45D1D5" stop-opacity="0.26"/>
      <stop offset="1" stop-color="#45D1D5" stop-opacity="0.08"/>
    </linearGradient>
    <linearGradient id="strokeGrad" x1="0" y1="0" x2="1" y2="1">
      <stop offset="0" stop-color="#45D1D5" stop-opacity="0.55"/>
      <stop offset="0.6" stop-color="#45D1D5" stop-opacity="0.18"/>
      <stop offset="1" stop-color="#45D1D5" stop-opacity="0.35"/>
    </linearGradient>
    <linearGradient id="glowGrad" x1="0" y1="0" x2="1" y2="1">
      <stop offset="0" stop-color="#7EDFE1" stop-opacity="0.65"/>
      <stop offset="1" stop-color="#45D1D5" stop-opacity="0.0"/>
    </linearGradient>
    <filter id="cardShadow" x="-30%" y="-30%" width="160%" height="160%">
      <feDropShadow dx="0" dy="22" stdDeviation="22" flood-color="#0b0f14" flood-opacity="0.20"/>
      <feDropShadow dx="0" dy="6" stdDeviation="10" flood-color="#45D1D5" flood-opacity="0.10"/>
    </filter>
    <filter id="softGlow" x="-40%" y="-40%" width="180%" height="180%">
      <feGaussianBlur stdDeviation="10" result="b"/>
      <feColorMatrix in="b" type="matrix"
        values="1 0 0 0 0
                0 1 0 0 0
                0 0 1 0 0
                0 0 0 0.9 0" />
    </filter>
    <filter id="noise" x="0" y="0" width="100%" height="100%">
      <feTurbulence type="fractalNoise" baseFrequency="0.8" numOctaves="2" stitchTiles="stitch" result="t"/>
      <feColorMatrix type="saturate" values="0" result="g"/>
      <feComponentTransfer>
        <feFuncA type="table" tableValues="0 0.12"/>
      </feComponentTransfer>
    </filter>
    <clipPath id="clipWindow">
      <rect x="56" y="56" width="1088" height="708" rx="26"/>
    </clipPath>
  </defs>

  <!-- window -->
  <rect x="56" y="56" width="1088" height="708" rx="26" fill="#ffffff" stroke="url(#strokeGrad)" stroke-width="1.2" filter="url(#cardShadow)"/>
  <rect x="56" y="56" width="1088" height="116" rx="26" fill="url(#headerGrad)"/>
  <!-- subtle corner glow -->
  <path d="M 56 56 H 470 C 360 160 260 210 56 240 Z" fill="url(#glowGrad)" opacity="0.6"/>
  <!-- mac dots -->
  <circle cx="102" cy="110" r="8" fill="#ff5f57"/><circle cx="128" cy="110" r="8" fill="#ffbd2e"/><circle cx="154" cy="110" r="8" fill="#28c840"/>
  
    <g>
      <circle cx="219.0" cy="103.0" r="23.0" fill="#45D1D5" opacity="0.10"/>
      <rect x="202" y="86" width="34" height="34" rx="17.0" fill="#ffffff" stroke="#e7ecef"/>
      
    <g transform="translate(210,94)" fill="none" stroke="#45D1D5" stroke-width="2" stroke-linecap="round" stroke-linejoin="round" opacity="0.95">
      <path d="M 2.6399999999999997 3.96 H 19.36 V 17.6 H 2.6399999999999997 Z"/>
      <path d="M 2.6399999999999997 11.0 H 7.92 L 10.120000000000001 14.08 H 11.88 L 14.08 11.0 H 19.36"/>
    </g>
    
    </g>
    
  <text x="246" y="116" font-family="Inter, system-ui" font-size="20" font-weight="800" fill="#0b0f14">Unified Inbox</text>
  <text x="246" y="145" font-family="Inter, system-ui" font-size="14" font-weight="650" fill="#3a454d">WhatsApp + email + socials in one timeline — with AI notes</text>

  <!-- content -->
  <g clip-path="url(#clipWindow)">
    
    <circle cx="210" cy="670" r="220" fill="#45D1D5" opacity="0.03"/>
    <circle cx="1000" cy="260" r="180" fill="#45D1D5" opacity="0.04"/>
    
    <rect x="92" y="240" width="360" height="508" rx="18" fill="#ffffff" stroke="#e7ecef"/>
    <text x="112" y="270" font-family="Inter, system-ui" font-size="13" font-weight="800" fill="#0b0f14">Channels</text>
    
    <g opacity="1.0">
      <rect x="340" y="254" width="84" height="22" rx="11.0" fill="url(#headerGrad)" stroke="#d8e7ea"/>
      <text x="382.0" y="268.96" text-anchor="middle" font-family="Inter, system-ui" font-size="11" font-weight="700" fill="#0b0f14">1 inbox</text>
    </g>
    
    
    <rect x="108" y="292" width="328" height="54" rx="16" fill="url(#headerGrad)" stroke="#d8e7ea"/>
    <circle cx="136" cy="319" r="10" fill="#45D1D5" opacity="0.45"/>
    <text x="156" y="324" font-family="Inter, system-ui" font-size="12.5" font-weight="850" fill="#0b0f14">WhatsApp</text>
    
    
    <rect x="108" y="356" width="328" height="54" rx="16" fill="#ffffff" stroke="#edf2f5"/>
    <circle cx="136" cy="383" r="10" fill="#45D1D5" opacity="0.2"/>
    <text x="156" y="388" font-family="Inter, system-ui" font-size="12.5" font-weight="850" fill="#0b0f14">Email</text>
    
    
    <rect x="108" y="420" width="328" height="54" rx="16" fill="#ffffff" stroke="#edf2f5"/>
    <circle cx="136" cy="447" r="10" fill="#45D1D5" opacity="0.2"/>
    <text x="156" y="452" font-family="Inter, system-ui" font-size="12.5" font-weight="850" fill="#0b0f14">Facebook / IG</text>
    
    
    <rect x="108" y="484" width="328" height="54" rx="16" fill="#ffffff" stroke="#edf2f5"/>
    <circle cx="136" cy="511" r="10" fill="#45D1D5" opacity="0.2"/>
    <text x="156" y="516" font-family="Inter, system-ui" font-size="12.5" font-weight="850" fill="#0b0f14">Website chat</text>
    
    
    <rect x="108" y="548" width="328" height="54" rx="16" fill="#ffffff" stroke="#edf2f5"/>
    <circle cx="136" cy="575" r="10" fill="#45D1D5" opacity="0.2"/>
    <text x="156" y="580" font-family="Inter, system-ui" font-size="12.5" font-weight="850" fill="#0b0f14">Notes</text>
    
    <rect x="108" y="626" width="328" height="90" rx="18" fill="#fbfdfd" stroke="#edf2f5"/>
    <text x="128" y="658" font-family="Inter, system-ui" font-size="12" font-weight="850" fill="#3a454d">Auto-detected intent</text>
    
    <g opacity="1.0">
      <rect x="128" y="672" width="120" height="22" rx="11.0" fill="url(#headerGrad)" stroke="#d8e7ea"/>
      <text x="188.0" y="686.96" text-anchor="middle" font-family="Inter, system-ui" font-size="11" font-weight="700" fill="#0b0f14">Pricing</text>
    </g>
    
    
    <g opacity="1.0">
      <rect x="256" y="672" width="150" height="22" rx="11.0" fill="#ffffff" stroke="#e7ecef"/>
      <text x="331.0" y="686.96" text-anchor="middle" font-family="Inter, system-ui" font-size="11" font-weight="700" fill="#0b0f14">Book a demo</text>
    </g>
    
    
    
    <rect x="470" y="240" width="410" height="508" rx="18" fill="#ffffff" stroke="#e7ecef"/>
    <text x="490" y="270" font-family="Inter, system-ui" font-size="13" font-weight="800" fill="#0b0f14">Timeline</text>
    
    <g opacity="1.0">
      <rect x="768" y="256" width="92" height="22" rx="11.0" fill="url(#headerGrad)" stroke="#d8e7ea"/>
      <text x="814.0" y="270.96" text-anchor="middle" font-family="Inter, system-ui" font-size="11" font-weight="700" fill="#0b0f14">AI summary</text>
    </g>
    
    
    <g>
      <rect x="490" y="314" width="260" height="64" rx="16" fill="#ffffff" stroke="#e7ecef"/>
      <rect x="504" y="328" width="143.0" height="10" rx="5" fill="#edf2f5" opacity="1.0"/><rect x="504" y="344" width="208.0" height="10" rx="5" fill="#edf2f5" opacity="1.0"/>
    </g>
    
    <g>
      <rect x="590" y="390" width="260" height="64" rx="16" fill="url(#headerGrad)" stroke="#d8e7ea"/>
      <rect x="604" y="404" width="130.0" height="10" rx="5" fill="#e5f6f6" opacity="0.9"/><rect x="604" y="420" width="195.0" height="10" rx="5" fill="#e5f6f6" opacity="0.9"/>
    </g>
    
    <g>
      <rect x="490" y="466" width="260" height="78" rx="16" fill="#ffffff" stroke="#e7ecef"/>
      <rect x="504" y="480" width="143.0" height="10" rx="5" fill="#edf2f5" opacity="1.0"/><rect x="504" y="496" width="208.0" height="10" rx="5" fill="#edf2f5" opacity="1.0"/><rect x="504" y="512" width="143.0" height="10" rx="5" fill="#edf2f5" opacity="1.0"/>
    </g>
    
    <g>
      <rect x="590" y="554" width="260" height="64" rx="16" fill="url(#headerGrad)" stroke="#d8e7ea"/>
      <rect x="604" y="568" width="130.0" height="10" rx="5" fill="#e5f6f6" opacity="0.9"/><rect x="604" y="584" width="195.0" height="10" rx="5" fill="#e5f6f6" opacity="0.9"/>
    </g>
    
    <rect x="490" y="692" width="370" height="54" rx="18" fill="#fbfdfd" stroke="#edf2f5"/>
    <text x="514" y="726" font-family="Inter, system-ui" font-size="12" font-weight="850" fill="#3a454d">Replying in 3s…</text>
    <rect x="740" y="708" width="100" height="22" rx="11" fill="url(#headerGrad)" stroke="#d8e7ea"/>
    <text x="790" y="724" text-anchor="middle" font-family="Inter, system-ui" font-size="11" font-weight="900" fill="#0b0f14">Send</text>
    
    
    <rect x="900" y="240" width="200" height="508" rx="18" fill="#ffffff" stroke="#e7ecef"/>
    <text x="920" y="270" font-family="Inter, system-ui" font-size="13" font-weight="800" fill="#0b0f14">Lead</text>
    <rect x="920" y="288" width="160" height="64" rx="18" fill="#fbfdfd" stroke="#edf2f5"/>
    
    <g>
      <circle cx="948" cy="320" r="16" fill="#45D1D5" opacity="0.22"/>
      <circle cx="948" cy="320" r="14" fill="#f6fbfb" stroke="#e7ecef"/>
      <circle cx="948" cy="317" r="4.8999999999999995" fill="#45D1D5" opacity="0.25"/>
      <path d="M 940.3 326.3 C 943.8 320.7, 952.2 320.7, 955.7 326.3" stroke="#45D1D5" stroke-width="2" fill="none" opacity="0.55" stroke-linecap="round"/>
      <g transform="translate(953.6,306.7)">
        <rect x="0" y="0" width="24" height="16" rx="8" fill="#45D1D5" opacity="0.20" stroke="#45D1D5" stroke-opacity="0.25"/>
        <text x="12.0" y="12" text-anchor="middle" font-family="Inter, system-ui" font-size="10" font-weight="800" fill="#0b0f14">AI</text>
      </g>
    </g>
    
    <text x="978" y="316" font-family="Inter, system-ui" font-size="12.5" font-weight="900" fill="#0b0f14">John D.</text>
    <text x="978" y="334" font-family="Inter, system-ui" font-size="11" font-weight="650" fill="#3a454d">Hot lead</text>

    <rect x="920" y="370" width="160" height="142" rx="18" fill="#fbfdfd" stroke="#edf2f5"/>
    <text x="936" y="400" font-family="Inter, system-ui" font-size="12" font-weight="850" fill="#3a454d">Quick actions</text>
    
    <g opacity="1.0">
      <rect x="936" y="412" width="136" height="22" rx="11.0" fill="#ffffff" stroke="#e7ecef"/>
      <text x="1004.0" y="426.96" text-anchor="middle" font-family="Inter, system-ui" font-size="11" font-weight="700" fill="#0b0f14">Send quote</text>
    </g>
    
    
    <g opacity="1.0">
      <rect x="936" y="438" width="136" height="22" rx="11.0" fill="url(#headerGrad)" stroke="#d8e7ea"/>
      <text x="1004.0" y="452.96" text-anchor="middle" font-family="Inter, system-ui" font-size="11" font-weight="700" fill="#0b0f14">Book meeting</text>
    </g>
    
    
    <g opacity="1.0">
      <rect x="936" y="464" width="136" height="22" rx="11.0" fill="#ffffff" stroke="#e7ecef"/>
      <text x="1004.0" y="478.96" text-anchor="middle" font-family="Inter, system-ui" font-size="11" font-weight="700" fill="#0b0f14">Start sequence</text>
    </g>
    

    <rect x="920" y="532" width="160" height="200" rx="18" fill="url(#headerGrad)" stroke="#d8e7ea"/>
    <text x="936" y="564" font-family="Inter, system-ui" font-size="12.5" font-weight="900" fill="#0b0f14">AI notes</text>
    <rect x="936" y="576" width="124" height="10" rx="5" fill="#e5f6f6"/>
    <rect x="936" y="594" width="140" height="10" rx="5" fill="#e5f6f6"/>
    <rect x="936" y="612" width="110" height="10" rx="5" fill="#e5f6f6"/>
    <rect x="936" y="640" width="130" height="10" rx="5" fill="#e5f6f6"/>
    <rect x="936" y="658" width="90" height="10" rx="5" fill="#e5f6f6"/>
    
    
    <!-- noise overlay -->
    <rect x="56" y="56" width="1088" height="708" rx="26" fill="#ffffff" filter="url(#noise)" opacity="0.15"/>
  </g>

  <!-- outer glow stroke -->
  <rect x="56" y="56" width="1088" height="708" rx="26" fill="none" stroke="#45D1D5" stroke-opacity="0.18"/>
</svg>