<svg xmlns="http://www.w3.org/2000/svg" width="1200" height="820" viewBox="0 0 1200 820">

  <defs>
    <linearGradient id="headerGrad" x1="0" y1="0" x2="1" y2="0">
      <stop offset="0" stop-color="#45D1D5" stop-opacity="0.26"/>
      <stop offset="1" stop-color="#45D1D5" stop-opacity="0.08"/>
    </linearGradient>
    <linearGradient id="strokeGrad" x1="0" y1="0" x2="1" y2="1">
      <stop offset="0" stop-color="#45D1D5" stop-opacity="0.55"/>
      <stop offset="0.6" stop-color="#45D1D5" stop-opacity="0.18"/>
      <stop offset="1" stop-color="#45D1D5" stop-opacity="0.35"/>
    </linearGradient>
    <linearGradient id="glowGrad" x1="0" y1="0" x2="1" y2="1">
      <stop offset="0" stop-color="#7EDFE1" stop-opacity="0.65"/>
      <stop offset="1" stop-color="#45D1D5" stop-opacity="0.0"/>
    </linearGradient>
    <filter id="cardShadow" x="-30%" y="-30%" width="160%" height="160%">
      <feDropShadow dx="0" dy="22" stdDeviation="22" flood-color="#0b0f14" flood-opacity="0.20"/>
      <feDropShadow dx="0" dy="6" stdDeviation="10" flood-color="#45D1D5" flood-opacity="0.10"/>
    </filter>
    <filter id="softGlow" x="-40%" y="-40%" width="180%" height="180%">
      <feGaussianBlur stdDeviation="10" result="b"/>
      <feColorMatrix in="b" type="matrix"
        values="1 0 0 0 0
                0 1 0 0 0
                0 0 1 0 0
                0 0 0 0.9 0" />
    </filter>
    <filter id="noise" x="0" y="0" width="100%" height="100%">
      <feTurbulence type="fractalNoise" baseFrequency="0.8" numOctaves="2" stitchTiles="stitch" result="t"/>
      <feColorMatrix type="saturate" values="0" result="g"/>
      <feComponentTransfer>
        <feFuncA type="table" tableValues="0 0.12"/>
      </feComponentTransfer>
    </filter>
    <clipPath id="clipWindow">
      <rect x="56" y="56" width="1088" height="708" rx="26"/>
    </clipPath>
  </defs>

  <!-- window -->
  <rect x="56" y="56" width="1088" height="708" rx="26" fill="#ffffff" stroke="url(#strokeGrad)" stroke-width="1.2" filter="url(#cardShadow)"/>
  <rect x="56" y="56" width="1088" height="116" rx="26" fill="url(#headerGrad)"/>
  <!-- subtle corner glow -->
  <path d="M 56 56 H 470 C 360 160 260 210 56 240 Z" fill="url(#glowGrad)" opacity="0.6"/>
  <!-- mac dots -->
  <circle cx="102" cy="110" r="8" fill="#ff5f57"/><circle cx="128" cy="110" r="8" fill="#ffbd2e"/><circle cx="154" cy="110" r="8" fill="#28c840"/>
  
    <g>
      <circle cx="219.0" cy="103.0" r="23.0" fill="#45D1D5" opacity="0.10"/>
      <rect x="202" y="86" width="34" height="34" rx="17.0" fill="#ffffff" stroke="#e7ecef"/>
      
    <g transform="translate(210,94)" fill="none" stroke="#45D1D5" stroke-width="2" stroke-linecap="round" stroke-linejoin="round" opacity="0.95">
      <path d="M 3.08 18.48 V 4.4"/>
      <path d="M 3.08 18.48 H 19.36"/>
      <path d="M 5.279999999999999 15.399999999999999 L 9.24 11.88 L 12.32 13.64 L 17.16 7.92"/>
      <circle cx="9.24" cy="11.88" r="0.88" fill="#45D1D5" stroke="none"/>
      <circle cx="12.32" cy="13.64" r="0.88" fill="#45D1D5" stroke="none"/>
      <circle cx="17.16" cy="7.92" r="0.88" fill="#45D1D5" stroke="none"/>
    </g>
    
    </g>
    
  <text x="246" y="116" font-family="Inter, system-ui" font-size="20" font-weight="800" fill="#0b0f14">Reporting</text>
  <text x="246" y="145" font-family="Inter, system-ui" font-size="14" font-weight="650" fill="#3a454d">See response time, win rate, and lead sources in one dashboard</text>

  <!-- content -->
  <g clip-path="url(#clipWindow)">
    
    <circle cx="250" cy="270" r="220" fill="#45D1D5" opacity="0.03"/>
    <circle cx="980" cy="620" r="260" fill="#45D1D5" opacity="0.04"/>
    
    <rect x="92" y="240" width="1008" height="508" rx="18" fill="#ffffff" stroke="#e7ecef"/>
    <text x="112" y="270" font-family="Inter, system-ui" font-size="13" font-weight="800" fill="#0b0f14">Dashboard</text>
    
    <g opacity="1.0">
      <rect x="948" y="256" width="132" height="22" rx="11.0" fill="url(#headerGrad)" stroke="#d8e7ea"/>
      <text x="1014.0" y="270.96" text-anchor="middle" font-family="Inter, system-ui" font-size="11" font-weight="700" fill="#0b0f14">Live updates</text>
    </g>
    
    
    <rect x="112" y="294" width="190" height="84" rx="18" fill="url(#headerGrad)" stroke="#d8e7ea"/>
    <text x="130" y="328" font-family="Inter, system-ui" font-size="11.5" font-weight="850" fill="#3a454d">Response time</text>
    <text x="130" y="356" font-family="Inter, system-ui" font-size="22" font-weight="950" fill="#0b0f14">18s</text>
    
    <rect x="312" y="294" width="190" height="84" rx="18" fill="#ffffff" stroke="#e7ecef"/>
    <text x="330" y="328" font-family="Inter, system-ui" font-size="11.5" font-weight="850" fill="#3a454d">Win rate</text>
    <text x="330" y="356" font-family="Inter, system-ui" font-size="22" font-weight="950" fill="#0b0f14">+32%</text>
    
    <rect x="512" y="294" width="190" height="84" rx="18" fill="#ffffff" stroke="#e7ecef"/>
    <text x="530" y="328" font-family="Inter, system-ui" font-size="11.5" font-weight="850" fill="#3a454d">Bookings</text>
    <text x="530" y="356" font-family="Inter, system-ui" font-size="22" font-weight="950" fill="#0b0f14">14/wk</text>
    
    <rect x="712" y="294" width="190" height="84" rx="18" fill="url(#headerGrad)" stroke="#d8e7ea"/>
    <text x="730" y="328" font-family="Inter, system-ui" font-size="11.5" font-weight="850" fill="#3a454d">Pipeline</text>
    <text x="730" y="356" font-family="Inter, system-ui" font-size="22" font-weight="950" fill="#0b0f14">R 82k</text>
    
    <rect x="912" y="294" width="190" height="84" rx="18" fill="#ffffff" stroke="#e7ecef"/>
    <text x="930" y="328" font-family="Inter, system-ui" font-size="11.5" font-weight="850" fill="#3a454d">New leads</text>
    <text x="930" y="356" font-family="Inter, system-ui" font-size="22" font-weight="950" fill="#0b0f14">126</text>
    <rect x="112" y="394" width="485" height="188" rx="18" fill="#ffffff" stroke="#e7ecef"/><text x="130" y="424" font-family="Inter, system-ui" font-size="12" font-weight="850" fill="#3a454d">Lead sources</text><rect x="130.0" y="528.0" width="47.5" height="32.0" rx="23.8" fill="#45D1D5" opacity="0.18"/><rect x="210.8" y="502.4" width="47.5" height="57.6" rx="23.8" fill="#45D1D5" opacity="0.3"/><rect x="291.7" y="480.6" width="47.5" height="79.4" rx="23.8" fill="#45D1D5" opacity="0.18"/><rect x="372.5" y="515.2" width="47.5" height="44.8" rx="23.8" fill="#45D1D5" opacity="0.3"/><rect x="453.3" y="460.2" width="47.5" height="99.8" rx="23.8" fill="#45D1D5" opacity="0.18"/><rect x="534.2" y="489.6" width="47.5" height="70.4" rx="23.8" fill="#45D1D5" opacity="0.3"/><rect x="130" y="560" width="449" height="2" rx="1" fill="#edf2f5"/><rect x="615" y="394" width="477" height="188" rx="18" fill="#ffffff" stroke="#e7ecef"/><text x="633" y="424" font-family="Inter, system-ui" font-size="12" font-weight="850" fill="#3a454d">Response time</text><path d="M 633.0 485.6 L 721.2 497.0 L 809.4 483.3 L 897.6 506.1 L 985.8 474.2 L 1074.0 478.8 L 1074.0 554.0 L 633.0 554.0 Z" fill="#45D1D5" opacity="0.10"/><path d="M 633.0 485.6 L 721.2 497.0 L 809.4 483.3 L 897.6 506.1 L 985.8 474.2 L 1074.0 478.8" fill="none" stroke="#45D1D5" stroke-width="3" stroke-opacity="0.45" stroke-linecap="round"/><circle cx="633.0" cy="485.6" r="4" fill="#45D1D5" opacity="0.45"/><circle cx="721.2" cy="497.0" r="4" fill="#45D1D5" opacity="0.45"/><circle cx="809.4" cy="483.3" r="4" fill="#45D1D5" opacity="0.45"/><circle cx="897.6" cy="506.1" r="4" fill="#45D1D5" opacity="0.45"/><circle cx="985.8" cy="474.2" r="4" fill="#45D1D5" opacity="0.45"/><circle cx="1074.0" cy="478.8" r="4" fill="#45D1D5" opacity="0.45"/>
    <rect x="112" y="594" width="968" height="134" rx="18" fill="#fbfdfd" stroke="#edf2f5"/>
    <text x="132" y="628" font-family="Inter, system-ui" font-size="12" font-weight="850" fill="#3a454d">Top conversations</text>
    
        <rect x="132" y="646" width="928" height="34" rx="12" fill="#ffffff" stroke="#edf2f5"/>
        <circle cx="150" cy="663" r="7" fill="#45D1D5" opacity="0.35"/>
        <rect x="166" y="657" width="420" height="12" rx="6" fill="#edf2f5"/>
        <rect x="900" y="657" width="120" height="12" rx="6" fill="#edf2f5"/>
        
        <rect x="132" y="690" width="928" height="34" rx="12" fill="#ffffff" stroke="#edf2f5"/>
        <circle cx="150" cy="707" r="7" fill="#45D1D5" opacity="0.22"/>
        <rect x="166" y="701" width="360" height="12" rx="6" fill="#edf2f5"/>
        <rect x="900" y="701" width="110" height="12" rx="6" fill="#edf2f5"/>
        
        <rect x="132" y="734" width="928" height="34" rx="12" fill="#ffffff" stroke="#edf2f5"/>
        <circle cx="150" cy="751" r="7" fill="#45D1D5" opacity="0.35"/>
        <rect x="166" y="745" width="300" height="12" rx="6" fill="#edf2f5"/>
        <rect x="900" y="745" width="100" height="12" rx="6" fill="#edf2f5"/>
        
        <rect x="132" y="778" width="928" height="34" rx="12" fill="#ffffff" stroke="#edf2f5"/>
        <circle cx="150" cy="795" r="7" fill="#45D1D5" opacity="0.22"/>
        <rect x="166" y="789" width="240" height="12" rx="6" fill="#edf2f5"/>
        <rect x="900" y="789" width="90" height="12" rx="6" fill="#edf2f5"/>
        
    
    <!-- noise overlay -->
    <rect x="56" y="56" width="1088" height="708" rx="26" fill="#ffffff" filter="url(#noise)" opacity="0.15"/>
  </g>

  <!-- outer glow stroke -->
  <rect x="56" y="56" width="1088" height="708" rx="26" fill="none" stroke="#45D1D5" stroke-opacity="0.18"/>
</svg>