<svg xmlns="http://www.w3.org/2000/svg" width="1200" height="820" viewBox="0 0 1200 820">
  <defs>
    <linearGradient id="headerGrad" x1="0" y1="0" x2="1" y2="0">
      <stop offset="0" stop-color="#45D1D5" stop-opacity="0.26"/>
      <stop offset="1" stop-color="#45D1D5" stop-opacity="0.08"/>
    </linearGradient>
    <linearGradient id="strokeGrad" x1="0" y1="0" x2="1" y2="1">
      <stop offset="0" stop-color="#45D1D5" stop-opacity="0.55"/>
      <stop offset="0.6" stop-color="#45D1D5" stop-opacity="0.18"/>
      <stop offset="1" stop-color="#45D1D5" stop-opacity="0.35"/>
    </linearGradient>
    <linearGradient id="glowGrad" x1="0" y1="0" x2="1" y2="1">
      <stop offset="0" stop-color="#7EDFE1" stop-opacity="0.65"/>
      <stop offset="1" stop-color="#45D1D5" stop-opacity="0.0"/>
    </linearGradient>
    <filter id="cardShadow" x="-30%" y="-30%" width="160%" height="160%">
      <feDropShadow dx="0" dy="22" stdDeviation="22" flood-color="#0b0f14" flood-opacity="0.20"/>
      <feDropShadow dx="0" dy="6" stdDeviation="10" flood-color="#45D1D5" flood-opacity="0.10"/>
    </filter>
    <clipPath id="clipWindow">
      <rect x="56" y="56" width="1088" height="708" rx="26"/>
    </clipPath>
  </defs>

  <!-- window -->
  <rect x="56" y="56" width="1088" height="708" rx="26" fill="#ffffff" stroke="url(#strokeGrad)" stroke-width="1.2" filter="url(#cardShadow)"/>
  <rect x="56" y="56" width="1088" height="116" rx="26" fill="url(#headerGrad)"/>
  <!-- subtle corner glow -->
  <path d="M 56 56 H 470 C 360 160 260 210 56 240 Z" fill="url(#glowGrad)" opacity="0.6"/>
  <!-- mac dots -->
  <circle cx="102" cy="110" r="8" fill="#ff5f57"/><circle cx="128" cy="110" r="8" fill="#ffbd2e"/><circle cx="154" cy="110" r="8" fill="#28c840"/>

  <!-- header icon -->
  <g>
    <circle cx="219" cy="103" r="23" fill="#45D1D5" opacity="0.10"/>
    <rect x="202" y="86" width="34" height="34" rx="17" fill="#ffffff" stroke="#e7ecef"/>
    <g transform="translate(210,94)" fill="none" stroke="#45D1D5" stroke-width="2" stroke-linecap="round" stroke-linejoin="round" opacity="0.95">
      
<rect x="3" y="3" width="7" height="7" rx="1.6"/>
<rect x="14" y="3" width="7" height="7" rx="1.6"/>
<rect x="3" y="14" width="7" height="7" rx="1.6"/>
<rect x="14" y="14" width="7" height="7" rx="1.6"/>

    </g>
  </g>

  <text x="246" y="116" font-family="Inter, system-ui" font-size="20" font-weight="800" fill="#0b0f14">AI &amp; Automation Store</text>
  <text x="246" y="145" font-family="Inter, system-ui" font-size="14" font-weight="650" fill="#3a454d">Start with core CRM — then install 1‑click boosters for measurable ROI</text>

  <!-- content -->
  <g clip-path="url(#clipWindow)">
    <circle cx="210" cy="670" r="220" fill="#45D1D5" opacity="0.03"/>
    <circle cx="1000" cy="260" r="180" fill="#45D1D5" opacity="0.04"/>
    
  <rect x="92" y="240" width="360" height="508" rx="18" fill="#ffffff" stroke="#e7ecef"/>
  <text x="112" y="270" font-family="Inter, system-ui" font-size="13" font-weight="800" fill="#0b0f14">AI &amp; Automation Store</text>
  <g opacity="1.0">
    <rect x="332" y="254" width="100" height="22" rx="11" fill="url(#headerGrad)" stroke="#d8e7ea"/>
    <text x="382" y="269" text-anchor="middle" font-family="Inter, system-ui" font-size="11" font-weight="700" fill="#0b0f14">1‑click</text>
  </g>

  <rect x="112" y="294" width="320" height="56" rx="16" fill="#fbfdfd" stroke="#edf2f5"/>
  <text x="130" y="328" font-family="Inter, system-ui" font-size="12" font-weight="850" fill="#3a454d">Categories</text>

  <!-- category pills -->
  <g>
    <rect x="112" y="364" width="320" height="52" rx="16" fill="url(#headerGrad)" stroke="#d8e7ea"/>
    <circle cx="140" cy="390" r="10" fill="#45D1D5" opacity="0.45"/>
    <text x="160" y="395" font-family="Inter, system-ui" font-size="12.5" font-weight="900" fill="#0b0f14">Boosters</text>
    <rect x="350" y="378" width="82" height="22" rx="11" fill="#ffffff" stroke="#e7ecef"/>
    <text x="391" y="393" text-anchor="middle" font-family="Inter, system-ui" font-size="11" font-weight="800" fill="#0b0f14">New</text>
  </g>

  <g>
    <rect x="112" y="424" width="320" height="52" rx="16" fill="#ffffff" stroke="#edf2f5"/>
    <circle cx="140" cy="450" r="10" fill="#45D1D5" opacity="0.20"/>
    <text x="160" y="455" font-family="Inter, system-ui" font-size="12.5" font-weight="900" fill="#0b0f14">AI Employees</text>
  </g>

  <g>
    <rect x="112" y="484" width="320" height="52" rx="16" fill="#ffffff" stroke="#edf2f5"/>
    <circle cx="140" cy="510" r="10" fill="#45D1D5" opacity="0.20"/>
    <text x="160" y="515" font-family="Inter, system-ui" font-size="12.5" font-weight="900" fill="#0b0f14">Automations</text>
  </g>

  <g>
    <rect x="112" y="544" width="320" height="52" rx="16" fill="#ffffff" stroke="#edf2f5"/>
    <circle cx="140" cy="570" r="10" fill="#45D1D5" opacity="0.20"/>
    <text x="160" y="575" font-family="Inter, system-ui" font-size="12.5" font-weight="900" fill="#0b0f14">Templates</text>
  </g>

  <g>
    <rect x="112" y="604" width="320" height="52" rx="16" fill="#ffffff" stroke="#edf2f5"/>
    <circle cx="140" cy="630" r="10" fill="#45D1D5" opacity="0.20"/>
    <text x="160" y="635" font-family="Inter, system-ui" font-size="12.5" font-weight="900" fill="#0b0f14">Integrations</text>
  </g>

  <g>
    <rect x="112" y="664" width="320" height="52" rx="16" fill="#ffffff" stroke="#edf2f5"/>
    <circle cx="140" cy="690" r="10" fill="#45D1D5" opacity="0.20"/>
    <text x="160" y="695" font-family="Inter, system-ui" font-size="12.5" font-weight="900" fill="#0b0f14">Reporting</text>
  </g>

  <rect x="112" y="724" width="320" height="22" rx="11" fill="#ffffff" stroke="#e7ecef"/>
  <text x="130" y="739" font-family="Inter, system-ui" font-size="11" font-weight="650" fill="#3a454d">Core CRM installed • Add boosters for ROI</text>

  <!-- main store grid -->
  <rect x="470" y="240" width="410" height="508" rx="18" fill="#ffffff" stroke="#e7ecef"/>
  <text x="490" y="270" font-family="Inter, system-ui" font-size="13" font-weight="800" fill="#0b0f14">Install boosters</text>
  <g opacity="1.0">
    <rect x="770" y="256" width="90" height="22" rx="11" fill="url(#headerGrad)" stroke="#d8e7ea"/>
    <text x="815" y="271" text-anchor="middle" font-family="Inter, system-ui" font-size="11" font-weight="700" fill="#0b0f14">Top ROI</text>
  </g>

  <!-- search -->
  <rect x="490" y="294" width="370" height="40" rx="14" fill="#fbfdfd" stroke="#edf2f5"/>
  <circle cx="512" cy="314" r="8" fill="none" stroke="#45D1D5" opacity="0.65"/>
  <path d="M 518 320 L 526 328" stroke="#45D1D5" opacity="0.65" stroke-width="2" stroke-linecap="round"/>
  <text x="536" y="319" font-family="Inter, system-ui" font-size="11.5" font-weight="650" fill="#3a454d">Search boosters…</text>

  <!-- booster cards (2 columns) -->
  <g>
    <rect x="490" y="348" width="176" height="112" rx="18" fill="url(#headerGrad)" stroke="#d8e7ea"/>
    <text x="508" y="378" font-family="Inter, system-ui" font-size="12.5" font-weight="900" fill="#0b0f14">AI Employee: Sales</text>
    <rect x="508" y="388" width="130" height="10" rx="5" fill="#e5f6f6"/>
    <rect x="508" y="406" width="112" height="10" rx="5" fill="#e5f6f6"/>
    <rect x="508" y="424" width="70" height="18" rx="9" fill="#ffffff" stroke="#e7ecef"/>
    <text x="543" y="437" text-anchor="middle" font-family="Inter, system-ui" font-size="10" font-weight="800" fill="#0b0f14">ROI</text>
    <rect x="590" y="424" width="60" height="18" rx="9" fill="#ffffff" stroke="#e7ecef"/>
    <text x="620" y="437" text-anchor="middle" font-family="Inter, system-ui" font-size="10" font-weight="800" fill="#0b0f14">Install</text>
  </g>

  <g>
    <rect x="684" y="348" width="176" height="112" rx="18" fill="#ffffff" stroke="#edf2f5"/>
    <text x="702" y="378" font-family="Inter, system-ui" font-size="12.5" font-weight="900" fill="#0b0f14">Auto Follow‑up</text>
    <rect x="702" y="388" width="130" height="10" rx="5" fill="#edf2f5"/>
    <rect x="702" y="406" width="112" height="10" rx="5" fill="#edf2f5"/>
    <rect x="702" y="424" width="86" height="18" rx="9" fill="url(#headerGrad)" stroke="#d8e7ea"/>
    <text x="745" y="437" text-anchor="middle" font-family="Inter, system-ui" font-size="10" font-weight="800" fill="#0b0f14">Popular</text>
    <rect x="804" y="424" width="56" height="18" rx="9" fill="#ffffff" stroke="#e7ecef"/>
    <text x="832" y="437" text-anchor="middle" font-family="Inter, system-ui" font-size="10" font-weight="800" fill="#0b0f14">Install</text>
  </g>

  <g>
    <rect x="490" y="472" width="176" height="112" rx="18" fill="#ffffff" stroke="#edf2f5"/>
    <text x="508" y="502" font-family="Inter, system-ui" font-size="12.5" font-weight="900" fill="#0b0f14">Quote Builder</text>
    <rect x="508" y="512" width="130" height="10" rx="5" fill="#edf2f5"/>
    <rect x="508" y="530" width="112" height="10" rx="5" fill="#edf2f5"/>
    <rect x="508" y="548" width="62" height="18" rx="9" fill="#ffffff" stroke="#e7ecef"/>
    <text x="539" y="561" text-anchor="middle" font-family="Inter, system-ui" font-size="10" font-weight="800" fill="#0b0f14">SLA</text>
    <rect x="590" y="548" width="76" height="18" rx="9" fill="#ffffff" stroke="#e7ecef"/>
    <text x="628" y="561" text-anchor="middle" font-family="Inter, system-ui" font-size="10" font-weight="800" fill="#0b0f14">Install</text>
  </g>

  <g>
    <rect x="684" y="472" width="176" height="112" rx="18" fill="url(#headerGrad)" stroke="#d8e7ea"/>
    <text x="702" y="502" font-family="Inter, system-ui" font-size="12.5" font-weight="900" fill="#0b0f14">WhatsApp Broadcast</text>
    <rect x="702" y="512" width="130" height="10" rx="5" fill="#e5f6f6"/>
    <rect x="702" y="530" width="112" height="10" rx="5" fill="#e5f6f6"/>
    <rect x="702" y="548" width="72" height="18" rx="9" fill="#ffffff" stroke="#e7ecef"/>
    <text x="738" y="561" text-anchor="middle" font-family="Inter, system-ui" font-size="10" font-weight="800" fill="#0b0f14">Growth</text>
    <rect x="804" y="548" width="56" height="18" rx="9" fill="#ffffff" stroke="#e7ecef"/>
    <text x="832" y="561" text-anchor="middle" font-family="Inter, system-ui" font-size="10" font-weight="800" fill="#0b0f14">Install</text>
  </g>

  <g>
    <rect x="490" y="596" width="176" height="112" rx="18" fill="#ffffff" stroke="#edf2f5"/>
    <text x="508" y="626" font-family="Inter, system-ui" font-size="12.5" font-weight="900" fill="#0b0f14">Templates Pack</text>
    <rect x="508" y="636" width="130" height="10" rx="5" fill="#edf2f5"/>
    <rect x="508" y="654" width="112" height="10" rx="5" fill="#edf2f5"/>
    <rect x="508" y="672" width="86" height="18" rx="9" fill="#ffffff" stroke="#e7ecef"/>
    <text x="551" y="685" text-anchor="middle" font-family="Inter, system-ui" font-size="10" font-weight="800" fill="#0b0f14">Instant</text>
    <rect x="600" y="672" width="66" height="18" rx="9" fill="#ffffff" stroke="#e7ecef"/>
    <text x="633" y="685" text-anchor="middle" font-family="Inter, system-ui" font-size="10" font-weight="800" fill="#0b0f14">Install</text>
  </g>

  <g>
    <rect x="684" y="596" width="176" height="112" rx="18" fill="#ffffff" stroke="#edf2f5"/>
    <text x="702" y="626" font-family="Inter, system-ui" font-size="12.5" font-weight="900" fill="#0b0f14">Integrations Hub</text>
    <rect x="702" y="636" width="130" height="10" rx="5" fill="#edf2f5"/>
    <rect x="702" y="654" width="112" height="10" rx="5" fill="#edf2f5"/>
    <rect x="702" y="672" width="76" height="18" rx="9" fill="url(#headerGrad)" stroke="#d8e7ea"/>
    <text x="740" y="685" text-anchor="middle" font-family="Inter, system-ui" font-size="10" font-weight="800" fill="#0b0f14">New</text>
    <rect x="804" y="672" width="56" height="18" rx="9" fill="#ffffff" stroke="#e7ecef"/>
    <text x="832" y="685" text-anchor="middle" font-family="Inter, system-ui" font-size="10" font-weight="800" fill="#0b0f14">Install</text>
  </g>

  <rect x="490" y="720" width="370" height="26" rx="13" fill="#fbfdfd" stroke="#edf2f5"/>
  <text x="510" y="738" font-family="Inter, system-ui" font-size="11" font-weight="650" fill="#3a454d">Each booster upgrades your system with measurable ROI</text>

  <!-- details -->
  <rect x="900" y="240" width="200" height="508" rx="18" fill="#ffffff" stroke="#e7ecef"/>
  <text x="920" y="270" font-family="Inter, system-ui" font-size="13" font-weight="800" fill="#0b0f14">Selected</text>

  <rect x="920" y="292" width="160" height="96" rx="18" fill="url(#headerGrad)" stroke="#d8e7ea"/>
  <text x="936" y="324" font-family="Inter, system-ui" font-size="12.5" font-weight="900" fill="#0b0f14">AI Employee: Sales</text>
  <rect x="936" y="336" width="120" height="10" rx="5" fill="#e5f6f6"/>
  <rect x="936" y="354" width="140" height="10" rx="5" fill="#e5f6f6"/>
  <rect x="936" y="366" width="110" height="22" rx="11" fill="#ffffff" stroke="#e7ecef"/>
  <text x="991" y="382" text-anchor="middle" font-family="Inter, system-ui" font-size="11" font-weight="900" fill="#0b0f14">Install</text>

  <rect x="920" y="400" width="160" height="134" rx="18" fill="#fbfdfd" stroke="#edf2f5"/>
  <text x="936" y="430" font-family="Inter, system-ui" font-size="12" font-weight="850" fill="#3a454d">Expected ROI</text>
  <text x="936" y="456" font-family="Inter, system-ui" font-size="16" font-weight="900" fill="#0b0f14">+18% close</text>
  <text x="936" y="478" font-family="Inter, system-ui" font-size="12" font-weight="850" fill="#3a454d">Saves ~6h/week</text>
  <rect x="936" y="496" width="132" height="10" rx="5" fill="#edf2f5"/>
  <rect x="936" y="496" width="94" height="10" rx="5" fill="url(#headerGrad)" stroke="#d8e7ea"/>

  <rect x="920" y="548" width="160" height="184" rx="18" fill="#ffffff" stroke="#edf2f5"/>
  <text x="936" y="578" font-family="Inter, system-ui" font-size="12" font-weight="850" fill="#3a454d">Includes</text>
  <rect x="936" y="592" width="132" height="36" rx="14" fill="#fbfdfd" stroke="#edf2f5"/>
  <text x="952" y="614" font-family="Inter, system-ui" font-size="11.5" font-weight="900" fill="#0b0f14">Sequences</text>

  <rect x="936" y="636" width="132" height="36" rx="14" fill="#fbfdfd" stroke="#edf2f5"/>
  <text x="952" y="658" font-family="Inter, system-ui" font-size="11.5" font-weight="900" fill="#0b0f14">Templates</text>

  <rect x="936" y="680" width="132" height="36" rx="14" fill="#fbfdfd" stroke="#edf2f5"/>
  <text x="952" y="702" font-family="Inter, system-ui" font-size="11.5" font-weight="900" fill="#0b0f14">Integrations</text>

  </g>
</svg>
